<svg xmlns="http://www.w3.org/2000/svg" width="120" height="120" viewBox="0 0 120 120"><defs><style>.a{fill:rgba(0,0,0,0.6);}</style></defs><g transform="translate(-2 -2)"><path class="a" d="M40.345,41.98a5.891,5.891,0,0,0-11.145,0Z" transform="translate(27.227 36.012)"/><path class="a" d="M32.345,41.98a5.891,5.891,0,0,0-11.145,0Z" transform="translate(19.219 36.012)"/><path class="a" d="M24.345,41.98a5.891,5.891,0,0,0-11.145,0Z" transform="translate(11.211 36.012)"/><path class="a" d="M16.345,41.98A5.8,5.8,0,0,0,10.773,38,5.8,5.8,0,0,0,5.2,41.98Z" transform="translate(3.169 36.012)"/><path class="a" d="M64.345,41.98a5.891,5.891,0,0,0-11.145,0Z" transform="translate(51.286 36.012)"/><path class="a" d="M56.345,41.98a5.891,5.891,0,0,0-11.145,0Z" transform="translate(43.244 36.012)"/><path class="a" d="M48.345,41.98a5.891,5.891,0,0,0-11.145,0Z" transform="translate(35.236 36.012)"/><path class="a" d="M14.474,41.364a11.53,11.53,0,0,1,6.17-3.184A6.23,6.23,0,0,0,14.872,34,6.037,6.037,0,0,0,9.1,38.179,12.115,12.115,0,0,1,14.474,41.364Z" transform="translate(7.03 32.021)"/><path class="a" d="M22.474,41.364a11.53,11.53,0,0,1,6.17-3.184A6.23,6.23,0,0,0,22.872,34,6.037,6.037,0,0,0,17.1,38.179,12.115,12.115,0,0,1,22.474,41.364Z" transform="translate(15.116 32.021)"/><path class="a" d="M30.474,41.364a11.53,11.53,0,0,1,6.17-3.184A6.23,6.23,0,0,0,30.872,34,6.037,6.037,0,0,0,25.1,38.179,12.115,12.115,0,0,1,30.474,41.364Z" transform="translate(23.124 32.021)"/><path class="a" d="M34.474,37.364a11.53,11.53,0,0,1,6.17-3.184A6.23,6.23,0,0,0,34.872,30,6.037,6.037,0,0,0,29.1,34.179,12.115,12.115,0,0,1,34.474,37.364Z" transform="translate(27.128 28.018)"/><path class="a" d="M50.474,37.364a11.53,11.53,0,0,1,6.17-3.184A6.23,6.23,0,0,0,50.872,30,6.037,6.037,0,0,0,45.1,34.179,12.115,12.115,0,0,1,50.474,37.364Z" transform="translate(43.145 28.018)"/><path class="a" d="M38.474,41.364a11.53,11.53,0,0,1,6.17-3.184A6.23,6.23,0,0,0,38.872,34,6.037,6.037,0,0,0,33.1,38.179,12.115,12.115,0,0,1,38.474,41.364Z" transform="translate(31.133 32.021)"/><path class="a" d="M46.474,41.364a11.53,11.53,0,0,1,6.17-3.184A6.23,6.23,0,0,0,46.872,34,6.037,6.037,0,0,0,41.1,38.179,12.115,12.115,0,0,1,46.474,41.364Z" transform="translate(39.141 32.021)"/><path class="a" d="M54.474,41.364a11.53,11.53,0,0,1,6.17-3.184A6.23,6.23,0,0,0,54.872,34,6.037,6.037,0,0,0,49.1,38.179,12.115,12.115,0,0,1,54.474,41.364Z" transform="translate(47.226 32.021)"/><path class="a" d="M18.474,37.364a11.53,11.53,0,0,1,6.17-3.184A6.23,6.23,0,0,0,18.872,30,6.037,6.037,0,0,0,13.1,34.179,12.115,12.115,0,0,1,18.474,37.364Z" transform="translate(11.112 28.018)"/><path class="a" d="M29,50.98a3.992,3.992,0,0,0,3.98,3.98V47A3.992,3.992,0,0,0,29,50.98Z" transform="translate(27.009 45.032)"/><path class="a" d="M33,60.961A3.98,3.98,0,1,0,33,53Z" transform="translate(31.01 51.088)"/><path class="a" d="M2,42V81.8H122V42ZM72,67.873a8,8,0,0,1-8,7.961v1.99H60v-1.99a8,8,0,0,1-8-7.961h4a4,4,0,0,0,4,3.98V63.892a7.961,7.961,0,1,1,0-15.922V45.98h4v1.99a8,8,0,0,1,8,7.961H68a4,4,0,0,0-4-3.98v7.961A8,8,0,0,1,72,67.873Z" transform="translate(0 40.196)"/><circle class="a" cx="12" cy="12" r="12" transform="translate(50.296 2)"/><path class="a" d="M22.088,48.042a9.649,9.649,0,0,1,6.17,3.781,9.177,9.177,0,0,1,6.17-3.781,9.907,9.907,0,0,1,19.5,0,9.649,9.649,0,0,1,6.17,3.781,9.177,9.177,0,0,1,6.17-3.781,9.887,9.887,0,0,1,2.388-4.776l-1.99-17.912A7.873,7.873,0,0,0,60.9,18.587L52.14,16,44.179,31.922,36.219,16l-8.757,2.587a7.873,7.873,0,0,0-5.772,6.767L19.7,43.266A9.887,9.887,0,0,1,22.088,48.042Z" transform="translate(17.821 14.059)"/></g></svg>