<svg xmlns="http://www.w3.org/2000/svg" width="114" height="120" viewBox="0 0 114 120"><defs><style>.a{fill:rgba(0,0,0,0.6);}</style></defs><g transform="translate(-19.661 -18.05)"><path class="a" d="M54.291,42.795c7.964-6.232,28.24-15.155,43.3-15.438-13.367-7.983-38.915-13.4-58.852-4.349C48.775,24.853,54.065,32.591,54.291,42.795Z" transform="translate(16.621 0.22)"/><path class="a" d="M48.54,39.6C59.987,31.22,81.939,23.614,94.364,25.7c0,3.577,2.127,15.626-8.566,36.938a61.6,61.6,0,0,1-5.328,8.886C78.173,56.825,63.206,41.9,48.54,39.6Z" transform="translate(25.152 6.447)"/><path class="a" d="M67.12,71.806c11.3.188,18.111,6.382,19.806,15.457,8.886-19.617,3.765-45.184-4.349-58.852C82.294,42.7,74.594,61.658,67.12,71.806Z" transform="translate(41.552 9.036)"/><path class="a" d="M85.48,18.276,72.64,26.447l6.194,6.194,8.152-12.8a1.092,1.092,0,0,0-1.506-1.563Z" transform="translate(46.424)"/><circle class="a" cx="8.679" cy="8.679" r="8.679" transform="translate(72.921 57.117)"/><path class="a" d="M83.158,71.42,78.207,55.455a7.851,7.851,0,0,0-7.531-5.535H51.849a7.851,7.851,0,0,0-7.531,5.535L42.85,60.218a6.947,6.947,0,0,1,2.429,10.825V73.19h.188L51.6,60.764,49.251,74.545c1.148,1.111.941,1.035,5.064,12.689a3.376,3.376,0,1,1-6.307,2.41l-.546-1.318V92.28h4.424v14.082a3.635,3.635,0,1,0,7.267.207l.452-14.289H62.9l.471,14.271a3.765,3.765,0,0,0,7.342-.113V92.355h5.78L70.845,60.783l6.42,12.972a3.169,3.169,0,0,0,5.893-2.335Z" transform="translate(20.268 27.789)"/><path class="a" d="M59.416,79.478a2.109,2.109,0,0,0,1.2-2.655c-4.688-13.179-3.765-13.179-9.037-13.179V62.27a6.1,6.1,0,0,1-8.077,0v1.374c-5.46,0-4.5.471-9.037,13.179a2.109,2.109,0,0,0,3.935,1.506l2.975-7.154V97.156a2.129,2.129,0,0,0,4.255.151l1.13-16.36h1.581l1.13,16.36a2.129,2.129,0,0,0,4.255-.151V71.175l2.975,7.192a2.109,2.109,0,0,0,2.711,1.111Z" transform="translate(12.869 38.69)"/><circle class="a" cx="8.585" cy="8.585" r="8.585" transform="translate(30.672 57.117)"/><path class="a" d="M46.242,87.441l2.3-6.514V59.3l5.177,14.158a5.648,5.648,0,0,1,1.468-.113V71.194A6.947,6.947,0,0,1,55.6,61.78L53.622,54.8a6.928,6.928,0,0,0-6.665-5.046H31.595A6.928,6.928,0,0,0,24.93,54.8l-5.2,18.017a2.466,2.466,0,0,0,4.707,1.45l5.5-15.061V107a3.205,3.205,0,0,0,6.4.339l1.6-24.682h2.636l1.581,24.475a3.2,3.2,0,0,0,6.4,0V91.828l-.4-.188A3.37,3.37,0,0,1,46.242,87.441Z" transform="translate(0 27.639)"/><path class="a" d="M43.33,67.027a5.648,5.648,0,1,0-4.97-5.648,5.648,5.648,0,0,0,4.97,5.648Z" transform="translate(16.389 33.073)"/></g></svg>