<svg xmlns="http://www.w3.org/2000/svg" width="120" height="80" viewBox="0 0 120 80"><defs><style>.a{fill:rgba(0,0,0,0.6);}</style></defs><g transform="translate(25 53.8)"><g transform="translate(-27.513 -72)"><circle class="a" cx="8.085" cy="8.085" r="8.085" transform="translate(72.095 18.2)"/><path class="a" d="M75.289,37.116A5.844,5.844,0,0,0,69.73,33.2H64.8a5.894,5.894,0,0,0-5.558,3.916L50.53,62.254a2.936,2.936,0,0,0,2.021,3.79l7.074,1.768a1.483,1.483,0,0,1,1.137,1.263l2.147,22.864a2.9,2.9,0,0,0,2.905,2.653h2.653a2.9,2.9,0,0,0,2.905-2.653L73.52,69.075a1.343,1.343,0,0,1,1.137-1.263l7.074-1.768a2.852,2.852,0,0,0,2.021-3.79Z" transform="translate(12.862 3.482)"/><circle class="a" cx="8.085" cy="8.085" r="8.085" transform="translate(34.824 18.2)"/><path class="a" d="M50.036,41.058A8.894,8.894,0,0,0,41.193,33.1H33.488a8.894,8.894,0,0,0-8.842,7.958L23,57.859A2.992,2.992,0,0,0,24.9,60.891l4.169,1.642a1.521,1.521,0,0,1,.884,1.263L32.1,91.966A3.006,3.006,0,0,0,35,94.745h4.674a2.911,2.911,0,0,0,2.905-2.779L44.73,63.8a1.521,1.521,0,0,1,.884-1.263l4.169-1.642a2.992,2.992,0,0,0,1.895-3.032Z" transform="translate(5.495 3.455)"/><path class="a" d="M19.8,50.579A4.223,4.223,0,0,0,15.887,47.8H12.476A4.223,4.223,0,0,0,8.56,50.579L2.623,68.138a2.033,2.033,0,0,0,1.39,2.653l4.927,1.263a1.084,1.084,0,0,1,.758.884l1.516,16.043a2.158,2.158,0,0,0,2.021,1.895h1.895a2.051,2.051,0,0,0,2.021-1.895l1.516-16.043a1.084,1.084,0,0,1,.758-.884L24.35,70.79a1.953,1.953,0,0,0,1.39-2.653Z" transform="translate(0 7.324)"/><circle class="a" cx="6.948" cy="6.948" r="6.948" transform="translate(7.297 39.148)"/><circle class="a" cx="6.948" cy="6.948" r="6.948" transform="translate(105.819 39.148)"/><path class="a" d="M100.479,53.358a6.273,6.273,0,0,0-6.19-5.558H88.857a6.273,6.273,0,0,0-6.19,5.558L81.4,65.106a2.046,2.046,0,0,0,1.263,2.147l2.905,1.137a.95.95,0,0,1,.632.884L87.72,88.981a2.158,2.158,0,0,0,2.021,1.895h3.284a1.971,1.971,0,0,0,2.021-1.895l1.516-19.706a.95.95,0,0,1,.632-.884l2.905-1.137a2.046,2.046,0,0,0,1.263-2.147Z" transform="translate(21.131 7.324)"/></g></g></svg>