<svg xmlns="http://www.w3.org/2000/svg" width="30" height="80" viewBox="0 0 30 80"><defs><style>.a{fill:rgba(0,0,0,0.6);}</style></defs><g transform="translate(74 94.5)"><g transform="translate(-106.5 -97)"><path class="a" d="M62.415,42.3A11.258,11.258,0,0,0,51.047,31.2H43.868A11.313,11.313,0,0,0,32.5,42.3v10.6a6.35,6.35,0,0,0,4.444,6.057l1.368.421,1.453,24.481A3.282,3.282,0,0,0,43.1,86.977h8.8a3.282,3.282,0,0,0,3.333-3.113l1.453-24.481,1.368-.421A6.509,6.509,0,0,0,62.5,52.905Z" transform="translate(0 -4.477)"/><ellipse class="a" cx="10.738" cy="10.55" rx="10.738" ry="10.55" transform="translate(36.72 2.5)"/></g></g></svg>