<svg xmlns="http://www.w3.org/2000/svg" width="66" height="80" viewBox="0 0 66 80"><defs><style>.a{fill:rgba(0,0,0,0.6);}</style></defs><g transform="translate(-9.96 -1.28)"><path class="a" d="M29.313,26.72H18.6c-4.681,0-8.637,4.181-8.637,9.128V58.691a1.746,1.746,0,0,0,.511,1.238l2.988,2.988V84.439a1.751,1.751,0,0,0,1.749,1.749H32.7a1.754,1.754,0,0,0,1.749-1.749V62.916l2.988-2.988a1.729,1.729,0,0,0,.511-1.238V35.847C37.95,30.9,34,26.72,29.313,26.72Z" transform="translate(0 -4.913)"/><path class="a" d="M34.954,11.775a10.5,10.5,0,1,1-10.5-10.5A10.5,10.5,0,0,1,34.954,11.775Z" transform="translate(-0.502)"/><path class="a" d="M80.8,69.656,77.425,51.695V35.847c0-4.947-3.954-9.128-8.637-9.128H58.072c-4.681,0-8.637,4.181-8.637,9.128l.031,15.519L45.8,70.113A1.746,1.746,0,0,0,47.521,72.2h5.412V84.443a1.752,1.752,0,0,0,1.749,1.749H72.174a1.754,1.754,0,0,0,1.749-1.749V72.2h5.282A1.712,1.712,0,0,0,80.99,70.45,1.729,1.729,0,0,0,80.8,69.656Z" transform="translate(-5.03 -4.912)"/><path class="a" d="M74.954,11.775a10.5,10.5,0,1,1-10.5-10.5A10.5,10.5,0,0,1,74.954,11.775Z" transform="translate(-6.057)"/></g></svg>