<svg xmlns="http://www.w3.org/2000/svg" width="20" height="20" viewBox="0 0 20 20"><defs><style>.a{fill:#1c93e6;}</style></defs><circle class="a" cx="1.885" cy="1.885" r="1.885" transform="translate(8.034 8.195)"/><path class="a" d="M24.283,19.2H19.571A2.081,2.081,0,0,0,17.3,21.471v4.713a2.361,2.361,0,0,0,.643,1.714,2.415,2.415,0,0,0,1.671.6h4.67a2.341,2.341,0,0,0,1.671-.6,2.195,2.195,0,0,0,.643-1.671V21.513a2.415,2.415,0,0,0-.6-1.671A2.294,2.294,0,0,0,24.283,19.2Zm-2.356,7.54a2.913,2.913,0,0,1,0-5.826,2.914,2.914,0,1,1,0,5.826Zm3.042-5.27a.685.685,0,1,1,.685-.685A.677.677,0,0,1,24.969,21.471Z" transform="translate(-12.007 -13.751)"/><path class="a" d="M13.7,5.2a10,10,0,1,0,10,10A9.993,9.993,0,0,0,13.7,5.2Zm5.325,12.358a3.222,3.222,0,0,1-.894,2.317,3.163,3.163,0,0,1-2.276.854H11.423a3.163,3.163,0,0,1-2.276-.854,3.063,3.063,0,0,1-.894-2.317V13.086a3.008,3.008,0,0,1,3.171-3.171h4.471a3,3,0,0,1,3.13,3.171Z" transform="translate(-3.7 -5.2)"/></svg>