<svg xmlns="http://www.w3.org/2000/svg" width="20" height="20" viewBox="0 0 20 20"><defs><style>.a{fill:#0077b5;}.b{fill:#fff;}</style></defs><g transform="translate(-0.349 -0.044)"><circle class="a" cx="10" cy="10" r="10" transform="translate(0.349 0.044)"/><path class="b" d="M132.5,131.9h-2.375v-7.67H132.5Zm-1.2-8.673a1.414,1.414,0,1,1,1.4-1.414A1.41,1.41,0,0,1,131.305,123.228Zm10.1,8.673h-2.361v-4.027c0-1.1-.421-1.721-1.291-1.721-.952,0-1.446.641-1.446,1.721V131.9h-2.279v-7.67H136.3v1.034A2.678,2.678,0,0,1,138.614,124c1.625,0,2.792.993,2.792,3.048S141.4,131.9,141.4,131.9Z" transform="translate(-125.189 -116.087)"/></g></svg>