<svg xmlns="http://www.w3.org/2000/svg" width="1000" height="110" viewBox="0 0 1000 110"><defs><style>.a,.b,.e{fill:#fff;}.b{font-size:24px;font-family:Poppins-Regular, Poppins;}.c{font-size:14px;font-family:Poppins-Medium, Poppins;font-weight:500;opacity:0.8;}.d{fill:#2ed2c8;}.e{font-size:12px;font-family:Poppins-Bold, Poppins;font-weight:700;letter-spacing:0.02em;}</style></defs><g transform="translate(452 -8.3)"><g transform="translate(52 7)"><path class="a" d="M19.3,1.3a18,18,0,1,0,18,18A18,18,0,0,0,19.3,1.3ZM22,28.023A17.956,17.956,0,0,1,11.871,14.754c-.3-2.513,4.066-4.731,4.066-4.731l2.735,4.657s-2.957,1.589-2.55,2.439a15.1,15.1,0,0,0,4.99,6.283c.924.333,2.957-1.922,2.957-1.922l3.918,3.7C28.023,25.177,24.733,29.353,22,28.023Z" transform="translate(-136.3)"/><text class="b" transform="translate(-79 27.3)"><tspan x="0" y="0">Have us call you?</tspan></text></g><g transform="translate(0 25)"><rect class="a" width="360" height="40" rx="5" transform="translate(-452 53.3)"/><text class="c" transform="translate(-432 78.3)"><tspan x="0" y="0">Your Name</tspan></text></g><g transform="translate(400 25)"><rect class="a" width="360" height="40" rx="5" transform="translate(-452 53.3)"/><text class="c" transform="translate(-432 78.3)"><tspan x="0" y="0">Mobile Number</tspan></text></g><g transform="translate(170 -395.7)"><rect class="d" width="210" height="40" rx="3" transform="translate(168 474)"/><text class="e" transform="translate(273.5 498.5)"><tspan x="-62.91" y="0">REQUEST CALL BACK</tspan></text></g></g></svg>