<svg xmlns="http://www.w3.org/2000/svg" width="36" height="50" viewBox="0 0 36 50"><defs><style>.a{fill:#fff;}</style></defs><path class="a" d="M57.158,54H36.288a.775.775,0,1,0,0,1.549h20.87a.775.775,0,1,0,0-1.549Z" transform="translate(-28.723 -32.9)"/><path class="a" d="M57.158,64H36.288a.775.775,0,1,0,0,1.549h20.87a.775.775,0,1,0,0-1.549Z" transform="translate(-28.723 -38.993)"/><path class="a" d="M57.158,74H36.288a.775.775,0,1,0,0,1.549h20.87a.775.775,0,1,0,0-1.549Z" transform="translate(-28.723 -45.086)"/><path class="a" d="M57.158,84H36.288a.775.775,0,1,0,0,1.549h20.87a.775.775,0,1,0,0-1.549Z" transform="translate(-28.723 -51.178)"/><path class="a" d="M57.158,94H36.288a.775.775,0,1,0,0,1.549h20.87a.775.775,0,1,0,0-1.549Z" transform="translate(-28.723 -57.271)"/><path class="a" d="M57.158,104H36.288a.775.775,0,1,0,0,1.549h20.87a.775.775,0,1,0,0-1.549Z" transform="translate(-28.723 -63.295)"/><path class="a" d="M57.158,114H36.288a.775.775,0,1,0,0,1.549h20.87a.775.775,0,1,0,0-1.549Z" transform="translate(-28.723 -69.422)"/><path class="a" d="M58.486,14.971A3.486,3.486,0,1,0,55,11.486,3.486,3.486,0,0,0,58.486,14.971Zm0-5.422a1.936,1.936,0,1,1-1.936,1.936A1.936,1.936,0,0,1,58.486,9.549Z" transform="translate(-40.486 -4.902)"/><path class="a" d="M56.863,30H51.2a3.08,3.08,0,0,0-3,2.31l-.473,1.563h1.618l.348-1.15a1.546,1.546,0,0,1,1.5-1.173h5.666a1.56,1.56,0,0,1,1.513,1.21l.337,1.113h1.618l-.463-1.526A3.093,3.093,0,0,0,56.863,30Z" transform="translate(-36.03 -18.273)"/><path class="a" d="M54,46.094V3.906A3.914,3.914,0,0,0,50.087,0H26.217a1.567,1.567,0,0,0-1.107.458L18.458,7.1A1.561,1.561,0,0,0,18,8.2V46.094A3.914,3.914,0,0,0,21.913,50H50.087A3.914,3.914,0,0,0,54,46.094ZM26.217,1.563v4.3A2.348,2.348,0,0,1,23.87,8.2h-4.3Zm-6.652,8.2h4.3a3.914,3.914,0,0,0,3.913-3.906v-4.3h22.3a2.348,2.348,0,0,1,2.348,2.344V17.188H19.565Zm0,36.328V18.75h32.87V46.094a2.348,2.348,0,0,1-2.348,2.344H21.913A2.348,2.348,0,0,1,19.565,46.094Z" transform="translate(-18)"/></svg>